<mxfile host="Electron" modified="2024-03-23T16:42:16.988Z" agent="Mozilla/5.0 (Macintosh; Intel Mac OS X 10_15_7) AppleWebKit/537.36 (KHTML, like Gecko) draw.io/24.0.4 Chrome/120.0.6099.109 Electron/28.1.0 Safari/537.36" etag="_KDfYMzxMaY1-XxPtd-Y" version="24.0.4" type="device">
  <diagram name="watcher" id="BidkEepPoL7I24XYZrPv">
    <mxGraphModel dx="2416" dy="758" grid="1" gridSize="10" guides="1" tooltips="1" connect="1" arrows="1" fold="1" page="1" pageScale="1" pageWidth="850" pageHeight="1100" math="0" shadow="0">
      <root>
        <mxCell id="0" />
        <mxCell id="1" parent="0" />
        <mxCell id="dQAaJH2BtIxso5Y9CEX_-7" style="edgeStyle=orthogonalEdgeStyle;rounded=1;orthogonalLoop=1;jettySize=auto;html=1;exitX=1;exitY=0.5;exitDx=0;exitDy=0;exitPerimeter=0;strokeWidth=2;curved=0;" edge="1" parent="1" source="dQAaJH2BtIxso5Y9CEX_-58" target="dQAaJH2BtIxso5Y9CEX_-4">
          <mxGeometry relative="1" as="geometry">
            <mxPoint x="-290" y="170" as="sourcePoint" />
          </mxGeometry>
        </mxCell>
        <mxCell id="dQAaJH2BtIxso5Y9CEX_-3" value="Initial" style="rounded=1;whiteSpace=wrap;html=1;sketch=0;container=1;recursiveResize=0;verticalAlign=top;arcSize=6;fontStyle=0;autosize=0;points=[];absoluteArcSize=1;shadow=1;strokeColor=#001DBC;fillColor=#0050ef;fontColor=#ffffff;fontFamily=Helvetica;fontSize=11;" vertex="1" parent="1">
          <mxGeometry x="-200" y="130" width="80" height="110" as="geometry">
            <mxRectangle x="-98" y="-1230" width="99" height="26" as="alternateBounds" />
          </mxGeometry>
        </mxCell>
        <mxCell id="dQAaJH2BtIxso5Y9CEX_-4" value="" style="rounded=1;whiteSpace=wrap;html=1;sketch=0;points=[[0,0.5,0,0,0],[1,0.5,0,0,0]];arcSize=50;fontFamily=Helvetica;fontSize=11;fontColor=default;" vertex="1" parent="dQAaJH2BtIxso5Y9CEX_-3">
          <mxGeometry x="-10" y="27.5" width="39.25" height="25" as="geometry" />
        </mxCell>
        <mxCell id="dQAaJH2BtIxso5Y9CEX_-5" value="" style="rounded=1;whiteSpace=wrap;html=1;sketch=0;points=[[0,0.5,0,0,0],[1,0.5,0,0,0]];fillColor=#1ba1e2;fontColor=#ffffff;strokeColor=#006EAF;arcSize=50;fontFamily=Helvetica;fontSize=11;" vertex="1" parent="dQAaJH2BtIxso5Y9CEX_-3">
          <mxGeometry x="60" y="27.5" width="35.25" height="25" as="geometry" />
        </mxCell>
        <mxCell id="dQAaJH2BtIxso5Y9CEX_-6" value="✗" style="rounded=1;whiteSpace=wrap;html=1;sketch=0;points=[[0,0.5,0,0,0],[1,0.5,0,0,0]];fillColor=#1ba1e2;fontColor=#ffffff;strokeColor=#006EAF;arcSize=50;fontFamily=Helvetica;fontSize=11;textOpacity=30;opacity=30;" vertex="1" parent="dQAaJH2BtIxso5Y9CEX_-3">
          <mxGeometry x="60" y="67.5" width="35.25" height="25" as="geometry" />
        </mxCell>
        <mxCell id="dQAaJH2BtIxso5Y9CEX_-8" value="Running" style="rounded=1;whiteSpace=wrap;html=1;sketch=0;container=1;recursiveResize=0;verticalAlign=top;arcSize=6;fontStyle=1;autosize=0;points=[];absoluteArcSize=1;shadow=1;strokeColor=#001DBC;fillColor=#0050ef;fontColor=#ffffff;fontFamily=Helvetica;fontSize=11;" vertex="1" parent="1">
          <mxGeometry x="400" y="280" width="110" height="200" as="geometry">
            <mxRectangle x="-98" y="-1230" width="99" height="26" as="alternateBounds" />
          </mxGeometry>
        </mxCell>
        <mxCell id="dQAaJH2BtIxso5Y9CEX_-10" value="Run Done" style="rounded=1;whiteSpace=wrap;html=1;sketch=0;points=[[0,0.5,0,0,0],[1,0.5,0,0,0]];fillColor=#1ba1e2;fontColor=#ffffff;strokeColor=#006EAF;arcSize=50;fontFamily=Helvetica;fontSize=11;" vertex="1" parent="dQAaJH2BtIxso5Y9CEX_-8">
          <mxGeometry x="65" y="27.5" width="65.25" height="25" as="geometry" />
        </mxCell>
        <mxCell id="dQAaJH2BtIxso5Y9CEX_-11" value="✗" style="rounded=1;whiteSpace=wrap;html=1;sketch=0;points=[[0,0.5,0,0,0],[1,0.5,0,0,0]];fillColor=#1ba1e2;fontColor=#ffffff;strokeColor=#006EAF;arcSize=50;fontFamily=Helvetica;fontSize=11;textOpacity=30;opacity=30;" vertex="1" parent="dQAaJH2BtIxso5Y9CEX_-8">
          <mxGeometry x="90" y="160" width="35.25" height="25" as="geometry" />
        </mxCell>
        <mxCell id="dQAaJH2BtIxso5Y9CEX_-12" value="debounced" style="rounded=1;whiteSpace=wrap;html=1;sketch=0;points=[[0,0.5,0,0,0],[1,0.5,0,0,0]];arcSize=50;fontFamily=Helvetica;fontSize=11;fontColor=default;" vertex="1" parent="dQAaJH2BtIxso5Y9CEX_-8">
          <mxGeometry x="-14" y="90" width="64" height="25" as="geometry" />
        </mxCell>
        <mxCell id="dQAaJH2BtIxso5Y9CEX_-15" value="File Changed" style="rounded=1;whiteSpace=wrap;html=1;sketch=0;points=[[0,0.5,0,0,0],[1,0.5,0,0,0]];fillColor=#1ba1e2;fontColor=#ffffff;strokeColor=#006EAF;arcSize=50;fontFamily=Helvetica;fontSize=11;" vertex="1" parent="dQAaJH2BtIxso5Y9CEX_-8">
          <mxGeometry x="65" y="60" width="65.25" height="25" as="geometry" />
        </mxCell>
        <mxCell id="dQAaJH2BtIxso5Y9CEX_-16" value="Abort" style="rounded=1;whiteSpace=wrap;html=1;sketch=0;points=[[0,0.5,0,0,0],[1,0.5,0,0,0]];fillColor=#1ba1e2;fontColor=#ffffff;strokeColor=#006EAF;arcSize=50;fontFamily=Helvetica;fontSize=11;" vertex="1" parent="dQAaJH2BtIxso5Y9CEX_-8">
          <mxGeometry x="65" y="92.5" width="65.25" height="25" as="geometry" />
        </mxCell>
        <mxCell id="dQAaJH2BtIxso5Y9CEX_-9" value="" style="rounded=1;whiteSpace=wrap;html=1;sketch=0;points=[[0,0.5,0,0,0],[1,0.5,0,0,0]];arcSize=50;fontFamily=Helvetica;fontSize=11;fontColor=default;" vertex="1" parent="dQAaJH2BtIxso5Y9CEX_-8">
          <mxGeometry x="-14" y="27.5" width="64" height="25" as="geometry" />
        </mxCell>
        <mxCell id="dQAaJH2BtIxso5Y9CEX_-14" style="edgeStyle=orthogonalEdgeStyle;curved=0;rounded=1;orthogonalLoop=1;jettySize=auto;html=1;exitX=1;exitY=0.5;exitDx=0;exitDy=0;exitPerimeter=0;entryX=0;entryY=0.5;entryDx=0;entryDy=0;entryPerimeter=0;strokeColor=default;strokeWidth=2;align=center;verticalAlign=middle;fontFamily=Helvetica;fontSize=11;fontColor=default;labelBackgroundColor=default;endArrow=classic;" edge="1" parent="1" source="dQAaJH2BtIxso5Y9CEX_-5" target="dQAaJH2BtIxso5Y9CEX_-9">
          <mxGeometry relative="1" as="geometry">
            <Array as="points">
              <mxPoint x="320" y="170" />
              <mxPoint x="320" y="320" />
            </Array>
          </mxGeometry>
        </mxCell>
        <mxCell id="dQAaJH2BtIxso5Y9CEX_-17" value="Queued" style="rounded=1;whiteSpace=wrap;html=1;sketch=0;container=1;recursiveResize=0;verticalAlign=top;arcSize=6;fontStyle=1;autosize=0;points=[];absoluteArcSize=1;shadow=1;strokeColor=#001DBC;fillColor=#0050ef;fontColor=#ffffff;fontFamily=Helvetica;fontSize=11;" vertex="1" parent="1">
          <mxGeometry x="630" y="280" width="120" height="200" as="geometry">
            <mxRectangle x="-98" y="-1230" width="99" height="26" as="alternateBounds" />
          </mxGeometry>
        </mxCell>
        <mxCell id="dQAaJH2BtIxso5Y9CEX_-18" value="Run Done" style="rounded=1;whiteSpace=wrap;html=1;sketch=0;points=[[0,0.5,0,0,0],[1,0.5,0,0,0]];fillColor=#1ba1e2;fontColor=#ffffff;strokeColor=#006EAF;arcSize=50;fontFamily=Helvetica;fontSize=11;" vertex="1" parent="dQAaJH2BtIxso5Y9CEX_-17">
          <mxGeometry x="70" y="27.5" width="65.25" height="25" as="geometry" />
        </mxCell>
        <mxCell id="dQAaJH2BtIxso5Y9CEX_-19" value="✗" style="rounded=1;whiteSpace=wrap;html=1;sketch=0;points=[[0,0.5,0,0,0],[1,0.5,0,0,0]];fillColor=#1ba1e2;fontColor=#ffffff;strokeColor=#006EAF;arcSize=50;fontFamily=Helvetica;fontSize=11;textOpacity=30;opacity=30;" vertex="1" parent="dQAaJH2BtIxso5Y9CEX_-17">
          <mxGeometry x="95" y="160" width="35.25" height="25" as="geometry" />
        </mxCell>
        <mxCell id="dQAaJH2BtIxso5Y9CEX_-20" value="File Changed" style="rounded=1;whiteSpace=wrap;html=1;sketch=0;points=[[0,0.5,0,0,0],[1,0.5,0,0,0]];arcSize=50;fontFamily=Helvetica;fontSize=11;fontColor=default;" vertex="1" parent="dQAaJH2BtIxso5Y9CEX_-17">
          <mxGeometry x="-14" y="60" width="64" height="25" as="geometry" />
        </mxCell>
        <mxCell id="dQAaJH2BtIxso5Y9CEX_-22" value="Abort" style="rounded=1;whiteSpace=wrap;html=1;sketch=0;points=[[0,0.5,0,0,0],[1,0.5,0,0,0]];fillColor=#1ba1e2;fontColor=#ffffff;strokeColor=#006EAF;arcSize=50;fontFamily=Helvetica;fontSize=11;" vertex="1" parent="dQAaJH2BtIxso5Y9CEX_-17">
          <mxGeometry x="70" y="92.5" width="65.25" height="25" as="geometry" />
        </mxCell>
        <mxCell id="dQAaJH2BtIxso5Y9CEX_-27" value="Debouncing" style="rounded=1;whiteSpace=wrap;html=1;sketch=0;container=1;recursiveResize=0;verticalAlign=top;arcSize=6;fontStyle=1;autosize=0;points=[];absoluteArcSize=1;shadow=1;strokeColor=#001DBC;fillColor=#0050ef;fontColor=#ffffff;fontFamily=Helvetica;fontSize=11;" vertex="1" parent="1">
          <mxGeometry x="140" y="307.5" width="120" height="200" as="geometry">
            <mxRectangle x="-98" y="-1230" width="99" height="26" as="alternateBounds" />
          </mxGeometry>
        </mxCell>
        <mxCell id="dQAaJH2BtIxso5Y9CEX_-28" value="Debounced" style="rounded=1;whiteSpace=wrap;html=1;sketch=0;points=[[0,0.5,0,0,0],[1,0.5,0,0,0]];fillColor=#1ba1e2;fontColor=#ffffff;strokeColor=#006EAF;arcSize=50;fontFamily=Helvetica;fontSize=11;" vertex="1" parent="dQAaJH2BtIxso5Y9CEX_-27">
          <mxGeometry x="70" y="62.5" width="65.25" height="25" as="geometry" />
        </mxCell>
        <mxCell id="dQAaJH2BtIxso5Y9CEX_-29" value="✗" style="rounded=1;whiteSpace=wrap;html=1;sketch=0;points=[[0,0.5,0,0,0],[1,0.5,0,0,0]];fillColor=#1ba1e2;fontColor=#ffffff;strokeColor=#006EAF;arcSize=50;fontFamily=Helvetica;fontSize=11;textOpacity=30;opacity=30;" vertex="1" parent="dQAaJH2BtIxso5Y9CEX_-27">
          <mxGeometry x="95" y="158" width="35.25" height="25" as="geometry" />
        </mxCell>
        <mxCell id="dQAaJH2BtIxso5Y9CEX_-30" value="Run Done" style="rounded=1;whiteSpace=wrap;html=1;sketch=0;points=[[0,0.5,0,0,0],[1,0.5,0,0,0]];arcSize=50;fontFamily=Helvetica;fontSize=11;fontColor=default;" vertex="1" parent="dQAaJH2BtIxso5Y9CEX_-27">
          <mxGeometry x="-14" y="37.5" width="64" height="25" as="geometry" />
        </mxCell>
        <mxCell id="dQAaJH2BtIxso5Y9CEX_-31" value="Abort" style="rounded=1;whiteSpace=wrap;html=1;sketch=0;points=[[0,0.5,0,0,0],[1,0.5,0,0,0]];fillColor=#1ba1e2;fontColor=#ffffff;strokeColor=#006EAF;arcSize=50;fontFamily=Helvetica;fontSize=11;" vertex="1" parent="dQAaJH2BtIxso5Y9CEX_-27">
          <mxGeometry x="70" y="92.5" width="65.25" height="25" as="geometry" />
        </mxCell>
        <mxCell id="dQAaJH2BtIxso5Y9CEX_-32" value="File Changed" style="rounded=1;whiteSpace=wrap;html=1;sketch=0;points=[[0,0.5,0,0,0],[1,0.5,0,0,0]];arcSize=50;fontFamily=Helvetica;fontSize=11;fontColor=default;" vertex="1" parent="dQAaJH2BtIxso5Y9CEX_-27">
          <mxGeometry x="-14" y="110" width="64" height="25" as="geometry" />
        </mxCell>
        <mxCell id="dQAaJH2BtIxso5Y9CEX_-50" value="File Changed" style="rounded=1;whiteSpace=wrap;html=1;sketch=0;points=[[0,0.5,0,0,0],[1,0.5,0,0,0]];fillColor=#1ba1e2;fontColor=#ffffff;strokeColor=#006EAF;arcSize=50;fontFamily=Helvetica;fontSize=11;" vertex="1" parent="dQAaJH2BtIxso5Y9CEX_-27">
          <mxGeometry x="70" y="122.5" width="65.25" height="25" as="geometry" />
        </mxCell>
        <mxCell id="dQAaJH2BtIxso5Y9CEX_-33" value="Watching" style="rounded=1;whiteSpace=wrap;html=1;sketch=0;container=1;recursiveResize=0;verticalAlign=top;arcSize=6;fontStyle=1;autosize=0;points=[];absoluteArcSize=1;shadow=1;strokeColor=#001DBC;fillColor=#0050ef;fontColor=#ffffff;fontFamily=Helvetica;fontSize=11;" vertex="1" parent="1">
          <mxGeometry x="-90" y="410" width="120" height="190" as="geometry">
            <mxRectangle x="-98" y="-1230" width="99" height="26" as="alternateBounds" />
          </mxGeometry>
        </mxCell>
        <mxCell id="dQAaJH2BtIxso5Y9CEX_-36" value="✗" style="rounded=1;whiteSpace=wrap;html=1;sketch=0;points=[[0,0.5,0,0,0],[1,0.5,0,0,0]];fillColor=#1ba1e2;fontColor=#ffffff;strokeColor=#006EAF;arcSize=50;fontFamily=Helvetica;fontSize=11;textOpacity=30;opacity=30;" vertex="1" parent="dQAaJH2BtIxso5Y9CEX_-33">
          <mxGeometry x="100" y="150" width="35.25" height="25" as="geometry" />
        </mxCell>
        <mxCell id="dQAaJH2BtIxso5Y9CEX_-38" value="Run Done" style="rounded=1;whiteSpace=wrap;html=1;sketch=0;points=[[0,0.5,0,0,0],[1,0.5,0,0,0]];arcSize=50;fontFamily=Helvetica;fontSize=11;fontColor=default;" vertex="1" parent="dQAaJH2BtIxso5Y9CEX_-33">
          <mxGeometry x="-14" y="50" width="64" height="25" as="geometry" />
        </mxCell>
        <mxCell id="dQAaJH2BtIxso5Y9CEX_-39" value="Abort" style="rounded=1;whiteSpace=wrap;html=1;sketch=0;points=[[0,0.5,0,0,0],[1,0.5,0,0,0]];fillColor=#1ba1e2;fontColor=#ffffff;strokeColor=#006EAF;arcSize=50;fontFamily=Helvetica;fontSize=11;" vertex="1" parent="dQAaJH2BtIxso5Y9CEX_-33">
          <mxGeometry x="70" y="102.5" width="65.25" height="25" as="geometry" />
        </mxCell>
        <mxCell id="dQAaJH2BtIxso5Y9CEX_-37" value="File Changed" style="rounded=1;whiteSpace=wrap;html=1;sketch=0;points=[[0,0.5,0,0,0],[1,0.5,0,0,0]];fillColor=#1ba1e2;fontColor=#ffffff;strokeColor=#006EAF;arcSize=50;fontFamily=Helvetica;fontSize=11;" vertex="1" parent="dQAaJH2BtIxso5Y9CEX_-33">
          <mxGeometry x="70" y="57.5" width="65.25" height="25" as="geometry" />
        </mxCell>
        <mxCell id="dQAaJH2BtIxso5Y9CEX_-43" style="edgeStyle=orthogonalEdgeStyle;curved=0;rounded=1;orthogonalLoop=1;jettySize=auto;html=1;exitX=1;exitY=0.5;exitDx=0;exitDy=0;exitPerimeter=0;strokeColor=default;strokeWidth=2;align=center;verticalAlign=middle;fontFamily=Helvetica;fontSize=11;fontColor=default;labelBackgroundColor=default;endArrow=classic;" edge="1" parent="1" source="dQAaJH2BtIxso5Y9CEX_-15" target="dQAaJH2BtIxso5Y9CEX_-20">
          <mxGeometry relative="1" as="geometry" />
        </mxCell>
        <mxCell id="dQAaJH2BtIxso5Y9CEX_-44" style="edgeStyle=orthogonalEdgeStyle;curved=0;rounded=1;orthogonalLoop=1;jettySize=auto;html=1;exitX=1;exitY=0.5;exitDx=0;exitDy=0;exitPerimeter=0;entryX=0;entryY=0.5;entryDx=0;entryDy=0;entryPerimeter=0;strokeColor=default;strokeWidth=1;align=center;verticalAlign=middle;fontFamily=Helvetica;fontSize=11;fontColor=default;labelBackgroundColor=default;endArrow=classic;" edge="1" parent="1" source="dQAaJH2BtIxso5Y9CEX_-22" target="epG4iBsPoziw_3PNNGxJ-1">
          <mxGeometry relative="1" as="geometry">
            <mxPoint x="830" y="530" as="targetPoint" />
          </mxGeometry>
        </mxCell>
        <mxCell id="dQAaJH2BtIxso5Y9CEX_-45" style="edgeStyle=orthogonalEdgeStyle;curved=0;rounded=1;orthogonalLoop=1;jettySize=auto;html=1;exitX=1;exitY=0.5;exitDx=0;exitDy=0;exitPerimeter=0;entryX=0;entryY=0.5;entryDx=0;entryDy=0;entryPerimeter=0;strokeColor=default;strokeWidth=2;align=center;verticalAlign=middle;fontFamily=Helvetica;fontSize=11;fontColor=default;labelBackgroundColor=default;endArrow=classic;" edge="1" parent="1" source="dQAaJH2BtIxso5Y9CEX_-37" target="dQAaJH2BtIxso5Y9CEX_-32">
          <mxGeometry relative="1" as="geometry">
            <Array as="points">
              <mxPoint x="70" y="480" />
              <mxPoint x="70" y="430" />
            </Array>
          </mxGeometry>
        </mxCell>
        <mxCell id="dQAaJH2BtIxso5Y9CEX_-48" style="edgeStyle=orthogonalEdgeStyle;curved=0;rounded=1;orthogonalLoop=1;jettySize=auto;html=1;exitX=1;exitY=0.5;exitDx=0;exitDy=0;exitPerimeter=0;entryX=0;entryY=0.5;entryDx=0;entryDy=0;entryPerimeter=0;strokeColor=default;strokeWidth=2;align=center;verticalAlign=middle;fontFamily=Helvetica;fontSize=11;fontColor=default;labelBackgroundColor=default;endArrow=classic;" edge="1" parent="1" source="dQAaJH2BtIxso5Y9CEX_-28" target="dQAaJH2BtIxso5Y9CEX_-12">
          <mxGeometry relative="1" as="geometry" />
        </mxCell>
        <mxCell id="dQAaJH2BtIxso5Y9CEX_-49" style="edgeStyle=orthogonalEdgeStyle;curved=0;rounded=1;orthogonalLoop=1;jettySize=auto;html=1;exitX=1;exitY=0.5;exitDx=0;exitDy=0;exitPerimeter=0;entryX=0;entryY=0.5;entryDx=0;entryDy=0;entryPerimeter=0;strokeColor=default;strokeWidth=2;align=center;verticalAlign=middle;fontFamily=Helvetica;fontSize=11;fontColor=default;labelBackgroundColor=default;endArrow=classic;" edge="1" parent="1" source="dQAaJH2BtIxso5Y9CEX_-10" target="dQAaJH2BtIxso5Y9CEX_-38">
          <mxGeometry relative="1" as="geometry">
            <Array as="points">
              <mxPoint x="550" y="320" />
              <mxPoint x="550" y="250" />
              <mxPoint x="-140" y="250" />
              <mxPoint x="-140" y="473" />
            </Array>
          </mxGeometry>
        </mxCell>
        <mxCell id="dQAaJH2BtIxso5Y9CEX_-53" value="File&lt;div&gt;Changed&lt;/div&gt;" style="rhombus;whiteSpace=wrap;html=1;rounded=1;fontStyle=1;glass=0;sketch=0;fontSize=12;points=[[0,0.5,0,0,0],[0.5,0,0,0,0],[0.5,1,0,0,0],[1,0.5,0,0,0]];shadow=1;fontFamily=Helvetica;fontColor=default;labelBackgroundColor=default;" vertex="1" parent="1">
          <mxGeometry x="-355" y="310" width="90" height="90" as="geometry" />
        </mxCell>
        <mxCell id="dQAaJH2BtIxso5Y9CEX_-57" style="edgeStyle=orthogonalEdgeStyle;curved=0;rounded=1;orthogonalLoop=1;jettySize=auto;html=1;exitX=1;exitY=0.5;exitDx=0;exitDy=0;exitPerimeter=0;entryX=0;entryY=0.5;entryDx=0;entryDy=0;entryPerimeter=0;strokeColor=default;strokeWidth=2;align=center;verticalAlign=middle;fontFamily=Helvetica;fontSize=11;fontColor=default;labelBackgroundColor=default;endArrow=classic;" edge="1" parent="1" source="dQAaJH2BtIxso5Y9CEX_-50" target="dQAaJH2BtIxso5Y9CEX_-59">
          <mxGeometry relative="1" as="geometry">
            <mxPoint x="880" y="675" as="targetPoint" />
            <Array as="points">
              <mxPoint x="300" y="443" />
              <mxPoint x="300" y="675" />
            </Array>
          </mxGeometry>
        </mxCell>
        <mxCell id="dQAaJH2BtIxso5Y9CEX_-58" value="begin" style="rhombus;whiteSpace=wrap;html=1;rounded=1;fontStyle=1;glass=0;sketch=0;fontSize=12;points=[[0,0.5,0,0,0],[0.5,0,0,0,0],[0.5,1,0,0,0],[1,0.5,0,0,0]];shadow=1;fontFamily=Helvetica;fontColor=default;labelBackgroundColor=default;" vertex="1" parent="1">
          <mxGeometry x="-355" y="125" width="90" height="90" as="geometry" />
        </mxCell>
        <mxCell id="dQAaJH2BtIxso5Y9CEX_-59" value="File&lt;div&gt;Changed&lt;/div&gt;" style="rhombus;whiteSpace=wrap;html=1;rounded=1;fontStyle=1;glass=0;sketch=0;fontSize=12;points=[[0,0.5,0,0,0],[0.5,0,0,0,0],[0.5,1,0,0,0],[1,0.5,0,0,0]];shadow=1;fontFamily=Helvetica;fontColor=#ffffff;labelBackgroundColor=none;fillColor=#0050ef;strokeColor=#001DBC;" vertex="1" parent="1">
          <mxGeometry x="1000" y="630" width="90" height="90" as="geometry" />
        </mxCell>
        <mxCell id="dQAaJH2BtIxso5Y9CEX_-60" style="edgeStyle=orthogonalEdgeStyle;curved=0;rounded=1;orthogonalLoop=1;jettySize=auto;html=1;exitX=1;exitY=0.5;exitDx=0;exitDy=0;exitPerimeter=0;entryX=0;entryY=0.5;entryDx=0;entryDy=0;entryPerimeter=0;strokeColor=default;strokeWidth=2;align=center;verticalAlign=middle;fontFamily=Helvetica;fontSize=11;fontColor=default;labelBackgroundColor=default;endArrow=classic;" edge="1" parent="1" source="dQAaJH2BtIxso5Y9CEX_-18" target="dQAaJH2BtIxso5Y9CEX_-30">
          <mxGeometry relative="1" as="geometry">
            <Array as="points">
              <mxPoint x="790" y="320" />
              <mxPoint x="790" y="230" />
              <mxPoint x="96" y="230" />
              <mxPoint x="96" y="358" />
            </Array>
          </mxGeometry>
        </mxCell>
        <mxCell id="epG4iBsPoziw_3PNNGxJ-1" value="Aborted" style="rhombus;whiteSpace=wrap;html=1;rounded=1;fontStyle=1;glass=0;sketch=0;fontSize=12;points=[[0,0.5,0,0,0],[0.5,0,0,0,0],[0.5,1,0,0,0],[1,0.5,0,0,0]];shadow=1;fontFamily=Helvetica;fontColor=#ffffff;labelBackgroundColor=none;fillColor=#0050ef;strokeColor=#001DBC;" vertex="1" parent="1">
          <mxGeometry x="1000" y="480" width="90" height="90" as="geometry" />
        </mxCell>
        <mxCell id="epG4iBsPoziw_3PNNGxJ-3" style="edgeStyle=orthogonalEdgeStyle;curved=0;rounded=1;orthogonalLoop=1;jettySize=auto;html=1;exitX=1;exitY=0.5;exitDx=0;exitDy=0;exitPerimeter=0;entryX=0;entryY=0.5;entryDx=0;entryDy=0;entryPerimeter=0;strokeColor=default;strokeWidth=1;align=center;verticalAlign=middle;fontFamily=Helvetica;fontSize=11;fontColor=default;labelBackgroundColor=default;endArrow=classic;" edge="1" parent="1" source="dQAaJH2BtIxso5Y9CEX_-16" target="epG4iBsPoziw_3PNNGxJ-1">
          <mxGeometry relative="1" as="geometry">
            <Array as="points">
              <mxPoint x="580" y="385" />
              <mxPoint x="580" y="525" />
            </Array>
          </mxGeometry>
        </mxCell>
        <mxCell id="epG4iBsPoziw_3PNNGxJ-4" style="edgeStyle=orthogonalEdgeStyle;curved=0;rounded=1;orthogonalLoop=1;jettySize=auto;html=1;exitX=1;exitY=0.5;exitDx=0;exitDy=0;exitPerimeter=0;entryX=0;entryY=0.5;entryDx=0;entryDy=0;entryPerimeter=0;strokeColor=default;strokeWidth=1;align=center;verticalAlign=middle;fontFamily=Helvetica;fontSize=11;fontColor=default;labelBackgroundColor=default;endArrow=classic;" edge="1" parent="1" source="dQAaJH2BtIxso5Y9CEX_-31" target="epG4iBsPoziw_3PNNGxJ-1">
          <mxGeometry relative="1" as="geometry">
            <Array as="points">
              <mxPoint x="350" y="413" />
              <mxPoint x="350" y="525" />
            </Array>
          </mxGeometry>
        </mxCell>
        <mxCell id="epG4iBsPoziw_3PNNGxJ-6" style="edgeStyle=orthogonalEdgeStyle;curved=0;rounded=1;orthogonalLoop=1;jettySize=auto;html=1;exitX=1;exitY=0.5;exitDx=0;exitDy=0;exitPerimeter=0;entryX=0;entryY=0.5;entryDx=0;entryDy=0;entryPerimeter=0;strokeColor=default;strokeWidth=1;align=center;verticalAlign=middle;fontFamily=Helvetica;fontSize=11;fontColor=default;labelBackgroundColor=default;endArrow=classic;" edge="1" parent="1" source="dQAaJH2BtIxso5Y9CEX_-39" target="epG4iBsPoziw_3PNNGxJ-1">
          <mxGeometry relative="1" as="geometry" />
        </mxCell>
        <mxCell id="epG4iBsPoziw_3PNNGxJ-7" style="edgeStyle=orthogonalEdgeStyle;curved=0;rounded=1;orthogonalLoop=1;jettySize=auto;html=1;exitX=1;exitY=0.5;exitDx=0;exitDy=0;exitPerimeter=0;entryX=0;entryY=0.5;entryDx=0;entryDy=0;entryPerimeter=0;strokeColor=default;strokeWidth=2;align=center;verticalAlign=middle;fontFamily=Helvetica;fontSize=11;fontColor=default;labelBackgroundColor=default;endArrow=classic;" edge="1" parent="1" source="dQAaJH2BtIxso5Y9CEX_-53" target="dQAaJH2BtIxso5Y9CEX_-32">
          <mxGeometry relative="1" as="geometry">
            <Array as="points">
              <mxPoint x="70" y="355" />
              <mxPoint x="70" y="430" />
            </Array>
          </mxGeometry>
        </mxCell>
      </root>
    </mxGraphModel>
  </diagram>
</mxfile>
